<?xml version="1.0" encoding="UTF-8"?>
<svg width="327px" height="327px" viewBox="0 0 327 327" version="1.1" xmlns="http://www.w3.org/2000/svg" xmlns:xlink="http://www.w3.org/1999/xlink">
    <!-- Generator: Sketch 47.1 (45422) - http://www.bohemiancoding.com/sketch -->
    <title>Oval 3</title>
    <desc>Created with Sketch.</desc>
    <defs></defs>
    <g id="Page-1" stroke="none" stroke-width="1" fill="none" fill-rule="evenodd">
        <circle id="Oval-3" fill="#222222" cx="163.5" cy="163.5" r="163.5"></circle>
        <path d="M203.429078,193.374794 L203.423656,193.374794 C203.425976,193.296744 203.427144,193.218405 203.427144,193.139794 C203.427144,188.851303 199.950636,185.374794 195.662145,185.374794 C191.373654,185.374794 187.897145,188.851303 187.897145,193.139794 C187.897145,193.218405 187.898313,193.296744 187.900633,193.374794 L187.767739,193.374794 C186.331427,209.578361 172.82996,222.279633 156.386426,222.279633 C138.985208,222.279633 124.878734,208.055816 124.878734,190.509849 L124.878734,155.374794 L124.873668,155.374794 C124.875988,155.296744 124.877157,155.218405 124.877157,155.139794 C124.877157,150.851303 121.400648,147.374794 117.112157,147.374794 C117.082108,147.374794 117.052098,147.374965 117.02213,147.375305 C117.02213,147.371765 117.02213,147.368282 117.02213,147.364799 C111.522876,147.364799 106.943976,151.305307 105.954984,156.51677 C100.55442,166.552776 89.9524589,173.374794 77.75713,173.374794 C60.084018,173.374794 45.75713,159.047906 45.75713,141.374794 C45.75713,123.701682 60.084018,109.374794 77.75713,109.374794 C90.1015823,109.374794 100.813462,116.36467 106.150758,126.602411 C107.45146,131.386643 111.825941,134.904794 117.02213,134.904794 C117.052098,134.904623 117.082108,134.904794 117.112157,134.904794 C121.322036,134.904794 124.749429,131.554571 124.873668,127.374794 L124.878734,127.374794 L124.878734,117.042223 C124.878734,99.4962555 138.985208,85.2724387 156.386426,85.2724387 C173.787644,85.2724387 187.894118,99.4962555 187.894118,117.042223 L187.894118,165.374794 L187.900633,165.374794 C188.024872,169.554571 191.452265,172.904794 195.662145,172.904794 C199.872024,172.904794 203.299417,169.554571 203.423656,165.374794 L203.466974,165.374794 C204.279568,148.559048 218.058285,135.176963 234.93677,135.176963 C252.337988,135.176963 266.444462,149.40078 266.444462,166.946747 L266.444462,240.414373 C266.444462,257.96034 252.337988,272.184157 234.93677,272.184157 C217.535552,272.184157 203.429078,257.96034 203.429078,240.414373 L203.429078,193.374794 Z" id="Combined-Shape" fill="#FFFFFF" transform="translate(156.100796, 178.728298) rotate(-32.000000) translate(-156.100796, -178.728298) "></path>
    </g>
</svg>